# MagicaVoxel @ Ephtracy

# group
g poolstick

# material
mtllib poolstick.mtl
usemtl palette

# normals
vn -1 0 0
vn 1 0 0
vn 0 0 1
vn 0 0 -1
vn 0 -1 0
vn 0 1 0

# texcoords
vt 0.369141 0.5
vt 0.392578 0.5
vt 0.396484 0.5
vt 0.845703 0.5
vt 0.970703 0.5
vt 0.990234 0.5
vt 0.994141 0.5

# verts
v -20 0 1
v -20 0 -1
v -20 2 1
v -20 2 -1
v 0 1 1
v 0 1 -1
v 0 2 1
v 0 2 -1
v 20 0 1
v 20 0 -1
v 20 1 1
v 20 1 -1
v -20 0 1
v -20 2 1
v -19 0 1
v -19 2 1
v -18 0 1
v -18 2 1
v -13 1 1
v -13 2 1
v -12 0 1
v -12 1 1
v -12 2 1
v -11 0 1
v -11 1 1
v -10 0 1
v -10 1 1
v -9 0 1
v -9 1 1
v -9 2 1
v -8 1 1
v -8 2 1
v 0 1 1
v 0 2 1
v 2 0 1
v 2 1 1
v 19 0 1
v 19 1 1
v 20 0 1
v 20 1 1
v -20 0 -1
v -20 2 -1
v -19 0 -1
v -19 2 -1
v -18 0 -1
v -18 2 -1
v -13 1 -1
v -13 2 -1
v -12 0 -1
v -12 1 -1
v -12 2 -1
v -11 0 -1
v -11 1 -1
v -10 0 -1
v -10 1 -1
v -9 0 -1
v -9 1 -1
v -9 2 -1
v -8 1 -1
v -8 2 -1
v 0 1 -1
v 0 2 -1
v 2 0 -1
v 2 1 -1
v 19 0 -1
v 19 1 -1
v 20 0 -1
v 20 1 -1
v -20 0 1
v -19 0 1
v -18 0 1
v -12 0 1
v -11 0 1
v -10 0 1
v -9 0 1
v 2 0 1
v 19 0 1
v 20 0 1
v -20 0 -1
v -19 0 -1
v -18 0 -1
v -12 0 -1
v -11 0 -1
v -10 0 -1
v -9 0 -1
v 2 0 -1
v 19 0 -1
v 20 0 -1
v 0 1 1
v 2 1 1
v 19 1 1
v 20 1 1
v 0 1 -1
v 2 1 -1
v 19 1 -1
v 20 1 -1
v -20 2 1
v -19 2 1
v -18 2 1
v -13 2 1
v -12 2 1
v -9 2 1
v -8 2 1
v 0 2 1
v -20 2 -1
v -19 2 -1
v -18 2 -1
v -13 2 -1
v -12 2 -1
v -9 2 -1
v -8 2 -1
v 0 2 -1

# faces
f 3/2/1 2/2/1 1/2/1
f 4/2/1 2/2/1 3/2/1
f 5/1/2 6/1/2 7/1/2
f 7/1/2 6/1/2 8/1/2
f 9/5/2 10/5/2 11/5/2
f 11/5/2 10/5/2 12/5/2
f 15/2/3 14/2/3 13/2/3
f 16/2/3 14/2/3 15/2/3
f 17/4/3 16/4/3 15/4/3
f 18/4/3 16/4/3 17/4/3
f 19/1/3 18/1/3 17/1/3
f 20/1/3 18/1/3 19/1/3
f 21/1/3 19/1/3 17/1/3
f 22/7/3 20/7/3 19/7/3
f 22/1/3 19/1/3 21/1/3
f 23/7/3 20/7/3 22/7/3
f 24/3/3 22/3/3 21/3/3
f 24/3/3 23/3/3 22/3/3
f 25/3/3 23/3/3 24/3/3
f 26/7/3 25/7/3 24/7/3
f 27/3/3 23/3/3 25/3/3
f 27/7/3 25/7/3 26/7/3
f 28/3/3 27/3/3 26/3/3
f 29/3/3 23/3/3 27/3/3
f 29/3/3 27/3/3 28/3/3
f 30/3/3 23/3/3 29/3/3
f 31/1/3 29/1/3 28/1/3
f 31/7/3 30/7/3 29/7/3
f 32/7/3 30/7/3 31/7/3
f 33/1/3 31/1/3 28/1/3
f 33/1/3 32/1/3 31/1/3
f 34/1/3 32/1/3 33/1/3
f 35/1/3 33/1/3 28/1/3
f 36/1/3 33/1/3 35/1/3
f 37/6/3 36/6/3 35/6/3
f 38/6/3 36/6/3 37/6/3
f 39/5/3 38/5/3 37/5/3
f 40/5/3 38/5/3 39/5/3
f 41/2/4 42/2/4 43/2/4
f 43/2/4 42/2/4 44/2/4
f 43/4/4 44/4/4 45/4/4
f 45/4/4 44/4/4 46/4/4
f 45/1/4 46/1/4 47/1/4
f 47/1/4 46/1/4 48/1/4
f 45/1/4 47/1/4 49/1/4
f 47/7/4 48/7/4 50/7/4
f 49/1/4 47/1/4 50/1/4
f 50/7/4 48/7/4 51/7/4
f 49/3/4 50/3/4 52/3/4
f 50/3/4 51/3/4 52/3/4
f 52/3/4 51/3/4 53/3/4
f 52/7/4 53/7/4 54/7/4
f 53/3/4 51/3/4 55/3/4
f 54/7/4 53/7/4 55/7/4
f 54/3/4 55/3/4 56/3/4
f 55/3/4 51/3/4 57/3/4
f 56/3/4 55/3/4 57/3/4
f 57/3/4 51/3/4 58/3/4
f 56/1/4 57/1/4 59/1/4
f 57/7/4 58/7/4 59/7/4
f 59/7/4 58/7/4 60/7/4
f 56/1/4 59/1/4 61/1/4
f 59/1/4 60/1/4 61/1/4
f 61/1/4 60/1/4 62/1/4
f 56/1/4 61/1/4 63/1/4
f 63/1/4 61/1/4 64/1/4
f 63/6/4 64/6/4 65/6/4
f 65/6/4 64/6/4 66/6/4
f 65/5/4 66/5/4 67/5/4
f 67/5/4 66/5/4 68/5/4
f 79/2/5 70/2/5 69/2/5
f 80/4/5 71/4/5 70/4/5
f 80/2/5 70/2/5 79/2/5
f 81/1/5 72/1/5 71/1/5
f 81/4/5 71/4/5 80/4/5
f 82/3/5 73/3/5 72/3/5
f 82/1/5 72/1/5 81/1/5
f 83/7/5 74/7/5 73/7/5
f 83/3/5 73/3/5 82/3/5
f 84/3/5 75/3/5 74/3/5
f 84/7/5 74/7/5 83/7/5
f 85/1/5 76/1/5 75/1/5
f 85/3/5 75/3/5 84/3/5
f 86/6/5 77/6/5 76/6/5
f 86/1/5 76/1/5 85/1/5
f 87/5/5 78/5/5 77/5/5
f 87/6/5 77/6/5 86/6/5
f 88/5/5 78/5/5 87/5/5
f 89/1/6 90/1/6 93/1/6
f 90/6/6 91/6/6 94/6/6
f 93/1/6 90/1/6 94/1/6
f 91/5/6 92/5/6 95/5/6
f 94/6/6 91/6/6 95/6/6
f 95/5/6 92/5/6 96/5/6
f 97/2/6 98/2/6 105/2/6
f 98/4/6 99/4/6 106/4/6
f 105/2/6 98/2/6 106/2/6
f 99/1/6 100/1/6 107/1/6
f 106/4/6 99/4/6 107/4/6
f 100/7/6 101/7/6 108/7/6
f 107/1/6 100/1/6 108/1/6
f 101/3/6 102/3/6 109/3/6
f 108/7/6 101/7/6 109/7/6
f 102/7/6 103/7/6 110/7/6
f 109/3/6 102/3/6 110/3/6
f 103/1/6 104/1/6 111/1/6
f 110/7/6 103/7/6 111/7/6
f 111/1/6 104/1/6 112/1/6
